<svg width="1403" height="476" viewBox="0 0 1403 476" fill="none" xmlns="http://www.w3.org/2000/svg">
<g clip-path="url(#clip0_2001_2)">
<path d="M280.896 77.3562L212.805 127.828C206.967 132.154 202.663 138.231 200.519 145.174C199.512 148.436 199 151.83 199 155.244V291.375C199 299.562 202.903 307.259 209.508 312.097L277.361 361.799C282.861 365.828 289.502 368 296.319 368C302.364 368 308.286 366.292 313.403 363.073L384.987 318.039C388.106 316.077 390.909 313.652 393.3 310.848C398.915 304.263 402 295.891 402 287.237V148.853C402 144.204 400.807 139.633 398.535 135.577C396.198 131.404 392.801 127.923 388.687 125.484L305.386 76.0974C301.966 74.0699 298.064 73 294.088 73C289.337 73 284.712 74.5272 280.896 77.3562Z" stroke="#71777D" stroke-opacity="0.2" stroke-width="2"/>
<path d="M37.8959 77.3562L-30.1952 127.828C-36.0326 132.154 -40.3365 138.231 -42.4805 145.174C-43.4878 148.436 -44 151.83 -44 155.244V291.375C-44 299.562 -40.0971 307.259 -33.4923 312.097L34.361 361.799C39.8611 365.828 46.5015 368 53.3193 368C59.3643 368 65.2864 366.292 70.4031 363.073L141.987 318.039C145.106 316.077 147.909 313.652 150.3 310.848C155.915 304.263 159 295.891 159 287.237V148.853C159 144.204 157.807 139.633 155.535 135.577C153.198 131.404 149.801 127.923 145.687 125.484L62.3864 76.0974C58.9665 74.0699 55.064 73 51.0882 73C46.3374 73 41.7125 74.5272 37.8959 77.3562Z" stroke="#71777D" stroke-opacity="0.2" stroke-width="2"/>
<path d="M166.896 -181.644L98.8048 -131.172C92.9674 -126.846 88.6635 -120.769 86.5195 -113.826C85.5122 -110.564 85 -107.17 85 -103.756V32.3751C85 40.5623 88.9029 48.259 95.5077 53.097L163.361 102.799C168.861 106.828 175.502 109 182.319 109C188.364 109 194.286 107.292 199.403 104.073L270.987 59.0387C274.106 57.0765 276.909 54.652 279.3 51.8482C284.915 45.2626 288 36.8912 288 28.2365V-110.147C288 -114.796 286.807 -119.367 284.535 -123.423C282.198 -127.596 278.801 -131.077 274.687 -133.516L191.386 -182.903C187.966 -184.93 184.064 -186 180.088 -186C175.337 -186 170.712 -184.473 166.896 -181.644Z" stroke="#71777D" stroke-opacity="0.2" stroke-width="2"/>
<path d="M-76.1041 -181.644L-144.195 -131.172C-150.033 -126.846 -154.337 -120.769 -156.481 -113.826C-157.488 -110.564 -158 -107.17 -158 -103.756V32.3751C-158 40.5623 -154.097 48.259 -147.492 53.097L-79.639 102.799C-74.1389 106.828 -67.4985 109 -60.6807 109C-54.6357 109 -48.7136 107.292 -43.5969 104.073L27.9874 59.0387C31.1063 57.0765 33.9091 54.652 36.2999 51.8482C41.9155 45.2626 45 36.8912 45 28.2365V-110.147C45 -114.796 43.807 -119.367 41.5351 -123.423C39.1981 -127.596 35.801 -131.077 31.6873 -133.516L-51.6136 -182.903C-55.0335 -184.93 -58.936 -186 -62.9118 -186C-67.6626 -186 -72.2875 -184.473 -76.1041 -181.644Z" stroke="#71777D" stroke-opacity="0.2" stroke-width="2"/>
<path d="M159.896 340.356L91.8048 390.828C85.9674 395.154 81.6635 401.231 79.5195 408.174C78.5122 411.436 78 414.83 78 418.244V554.375C78 562.562 81.9029 570.259 88.5077 575.097L156.361 624.799C161.861 628.828 168.502 631 175.319 631C181.364 631 187.286 629.292 192.403 626.073L263.987 581.039C267.106 579.077 269.909 576.652 272.3 573.848C277.915 567.263 281 558.891 281 550.237V411.853C281 407.204 279.807 402.633 277.535 398.577C275.198 394.404 271.801 390.923 267.687 388.484L184.386 339.097C180.966 337.07 177.064 336 173.088 336C168.337 336 163.712 337.527 159.896 340.356Z" stroke="#71777D" stroke-opacity="0.2" stroke-width="2"/>
<path d="M523.896 77.3562L455.805 127.828C449.967 132.154 445.663 138.231 443.519 145.174C442.512 148.436 442 151.83 442 155.244V291.375C442 299.562 445.903 307.259 452.508 312.097L520.361 361.799C525.861 365.828 532.502 368 539.319 368C545.364 368 551.286 366.292 556.403 363.073L627.987 318.039C631.106 316.077 633.909 313.652 636.3 310.848C641.915 304.263 645 295.891 645 287.237V148.853C645 144.204 643.807 139.633 641.535 135.577C639.198 131.404 635.801 127.923 631.687 125.484L548.386 76.0974C544.966 74.0699 541.064 73 537.088 73C532.337 73 527.712 74.5272 523.896 77.3562Z" stroke="#71777D" stroke-opacity="0.2" stroke-width="2"/>
<path d="M409.896 -181.644L341.805 -131.172C335.967 -126.846 331.663 -120.769 329.519 -113.826C328.512 -110.564 328 -107.17 328 -103.756V32.3751C328 40.5623 331.903 48.259 338.508 53.097L406.361 102.799C411.861 106.828 418.502 109 425.319 109C431.364 109 437.286 107.292 442.403 104.073L513.987 59.0387C517.106 57.0765 519.909 54.652 522.3 51.8482C527.915 45.2626 531 36.8912 531 28.2365V-110.147C531 -114.796 529.807 -119.367 527.535 -123.423C525.198 -127.596 521.801 -131.077 517.687 -133.516L434.386 -182.903C430.966 -184.93 427.064 -186 423.088 -186C418.337 -186 413.712 -184.473 409.896 -181.644Z" stroke="#71777D" stroke-opacity="0.2" stroke-width="2"/>
<path d="M402.896 340.356L334.805 390.828C328.967 395.154 324.663 401.231 322.519 408.174C321.512 411.436 321 414.83 321 418.244V554.375C321 562.562 324.903 570.259 331.508 575.097L399.361 624.799C404.861 628.828 411.502 631 418.319 631C424.364 631 430.286 629.292 435.403 626.073L506.987 581.039C510.106 579.077 512.909 576.652 515.3 573.848C520.915 567.263 524 558.891 524 550.237V411.853C524 407.204 522.807 402.633 520.535 398.577C518.198 394.404 514.801 390.923 510.687 388.484L427.386 339.097C423.966 337.07 420.064 336 416.088 336C411.337 336 406.712 337.527 402.896 340.356Z" stroke="#71777D" stroke-opacity="0.2" stroke-width="2"/>
<path d="M766.896 77.3562L698.805 127.828C692.967 132.154 688.663 138.231 686.519 145.174C685.512 148.436 685 151.83 685 155.244V291.375C685 299.562 688.903 307.259 695.508 312.097L763.361 361.799C768.861 365.828 775.502 368 782.319 368C788.364 368 794.286 366.292 799.403 363.073L870.987 318.039C874.106 316.077 876.909 313.652 879.3 310.848C884.915 304.263 888 295.891 888 287.237V148.853C888 144.204 886.807 139.633 884.535 135.577C882.198 131.404 878.801 127.923 874.687 125.484L791.386 76.0974C787.966 74.0699 784.064 73 780.088 73C775.337 73 770.712 74.5272 766.896 77.3562Z" stroke="#71777D" stroke-opacity="0.2" stroke-width="2"/>
<path d="M652.896 -181.644L584.805 -131.172C578.967 -126.846 574.663 -120.769 572.519 -113.826C571.512 -110.564 571 -107.17 571 -103.756V32.3751C571 40.5623 574.903 48.259 581.508 53.097L649.361 102.799C654.861 106.828 661.502 109 668.319 109C674.364 109 680.286 107.292 685.403 104.073L756.987 59.0387C760.106 57.0765 762.909 54.652 765.3 51.8482C770.915 45.2626 774 36.8912 774 28.2365V-110.147C774 -114.796 772.807 -119.367 770.535 -123.423C768.198 -127.596 764.801 -131.077 760.687 -133.516L677.386 -182.903C673.966 -184.93 670.064 -186 666.088 -186C661.337 -186 656.712 -184.473 652.896 -181.644Z" stroke="#71777D" stroke-opacity="0.2" stroke-width="2"/>
<path d="M645.896 340.356L577.805 390.828C571.967 395.154 567.663 401.231 565.519 408.174C564.512 411.436 564 414.83 564 418.244V554.375C564 562.562 567.903 570.259 574.508 575.097L642.361 624.799C647.861 628.828 654.502 631 661.319 631C667.364 631 673.286 629.292 678.403 626.073L749.987 581.039C753.106 579.077 755.909 576.652 758.3 573.848C763.915 567.263 767 558.891 767 550.237V411.853C767 407.204 765.807 402.633 763.535 398.577C761.198 394.404 757.801 390.923 753.687 388.484L670.386 339.097C666.966 337.07 663.064 336 659.088 336C654.337 336 649.712 337.527 645.896 340.356Z" stroke="#71777D" stroke-opacity="0.2" stroke-width="2"/>
<path d="M1009.9 77.3562L941.805 127.828C935.967 132.154 931.663 138.231 929.519 145.174C928.512 148.436 928 151.83 928 155.244V291.375C928 299.562 931.903 307.259 938.508 312.097L1006.36 361.799C1011.86 365.828 1018.5 368 1025.32 368C1031.36 368 1037.29 366.292 1042.4 363.073L1113.99 318.039C1117.11 316.077 1119.91 313.652 1122.3 310.848C1127.92 304.263 1131 295.891 1131 287.237V148.853C1131 144.204 1129.81 139.633 1127.54 135.577C1125.2 131.404 1121.8 127.923 1117.69 125.484L1034.39 76.0974C1030.97 74.0699 1027.06 73 1023.09 73C1018.34 73 1013.71 74.5272 1009.9 77.3562Z" stroke="#71777D" stroke-opacity="0.2" stroke-width="2"/>
<path d="M1252.9 77.3562L1184.8 127.828C1178.97 132.154 1174.66 138.231 1172.52 145.174C1171.51 148.436 1171 151.83 1171 155.244V291.375C1171 299.562 1174.9 307.259 1181.51 312.097L1249.36 361.799C1254.86 365.828 1261.5 368 1268.32 368C1274.36 368 1280.29 366.292 1285.4 363.073L1356.99 318.039C1360.11 316.077 1362.91 313.652 1365.3 310.848C1370.92 304.263 1374 295.891 1374 287.237V148.853C1374 144.204 1372.81 139.633 1370.54 135.577C1368.2 131.404 1364.8 127.923 1360.69 125.484L1277.39 76.0974C1273.97 74.0699 1270.06 73 1266.09 73C1261.34 73 1256.71 74.5272 1252.9 77.3562Z" stroke="#71777D" stroke-opacity="0.2" stroke-width="2"/>
<path d="M895.896 -181.644L827.805 -131.172C821.967 -126.846 817.663 -120.769 815.519 -113.826C814.512 -110.564 814 -107.17 814 -103.756V32.3751C814 40.5623 817.903 48.259 824.508 53.097L892.361 102.799C897.861 106.828 904.502 109 911.319 109C917.364 109 923.286 107.292 928.403 104.073L999.987 59.0387C1003.11 57.0765 1005.91 54.652 1008.3 51.8482C1013.92 45.2626 1017 36.8912 1017 28.2365V-110.147C1017 -114.796 1015.81 -119.367 1013.54 -123.423C1011.2 -127.596 1007.8 -131.077 1003.69 -133.516L920.386 -182.903C916.966 -184.93 913.064 -186 909.088 -186C904.337 -186 899.712 -184.473 895.896 -181.644Z" stroke="#71777D" stroke-opacity="0.2" stroke-width="2"/>
<path d="M1138.9 -181.644L1070.8 -131.172C1064.97 -126.846 1060.66 -120.769 1058.52 -113.826C1057.51 -110.564 1057 -107.17 1057 -103.756V32.3751C1057 40.5623 1060.9 48.259 1067.51 53.097L1135.36 102.799C1140.86 106.828 1147.5 109 1154.32 109C1160.36 109 1166.29 107.292 1171.4 104.073L1242.99 59.0387C1246.11 57.0765 1248.91 54.652 1251.3 51.8482C1256.92 45.2626 1260 36.8912 1260 28.2365V-110.147C1260 -114.796 1258.81 -119.367 1256.54 -123.423C1254.2 -127.596 1250.8 -131.077 1246.69 -133.516L1163.39 -182.903C1159.97 -184.93 1156.06 -186 1152.09 -186C1147.34 -186 1142.71 -184.473 1138.9 -181.644Z" stroke="#71777D" stroke-opacity="0.2" stroke-width="2"/>
<path d="M889.896 340.356L821.805 390.828C815.967 395.154 811.663 401.231 809.519 408.174C808.512 411.436 808 414.83 808 418.244V554.375C808 562.562 811.903 570.259 818.508 575.097L886.361 624.799C891.861 628.828 898.502 631 905.319 631C911.364 631 917.286 629.292 922.403 626.073L993.987 581.039C997.106 579.077 999.909 576.652 1002.3 573.848C1007.92 567.263 1011 558.891 1011 550.237V411.853C1011 407.204 1009.81 402.633 1007.54 398.577C1005.2 394.404 1001.8 390.923 997.687 388.484L914.386 339.097C910.966 337.07 907.064 336 903.088 336C898.337 336 893.712 337.527 889.896 340.356Z" stroke="#71777D" stroke-opacity="0.2" stroke-width="2"/>
<path d="M1133.9 334.356L1065.8 384.828C1059.97 389.154 1055.66 395.231 1053.52 402.174C1052.51 405.436 1052 408.83 1052 412.244V548.375C1052 556.562 1055.9 564.259 1062.51 569.097L1130.36 618.799C1135.86 622.828 1142.5 625 1149.32 625C1155.36 625 1161.29 623.292 1166.4 620.073L1237.99 575.039C1241.11 573.077 1243.91 570.652 1246.3 567.848C1251.92 561.263 1255 552.891 1255 544.237V405.853C1255 401.204 1253.81 396.633 1251.54 392.577C1249.2 388.404 1245.8 384.923 1241.69 382.484L1158.39 333.097C1154.97 331.07 1151.06 330 1147.09 330C1142.34 330 1137.71 331.527 1133.9 334.356Z" stroke="#71777D" stroke-opacity="0.2" stroke-width="2"/>
<path d="M1377.9 334.356L1309.8 384.828C1303.97 389.154 1299.66 395.231 1297.52 402.174C1296.51 405.436 1296 408.83 1296 412.244V548.375C1296 556.562 1299.9 564.259 1306.51 569.097L1374.36 618.799C1379.86 622.828 1386.5 625 1393.32 625C1399.36 625 1405.29 623.292 1410.4 620.073L1481.99 575.039C1485.11 573.077 1487.91 570.652 1490.3 567.848C1495.92 561.263 1499 552.891 1499 544.237V405.853C1499 401.204 1497.81 396.633 1495.54 392.577C1493.2 388.404 1489.8 384.923 1485.69 382.484L1402.39 333.097C1398.97 331.07 1395.06 330 1391.09 330C1386.34 330 1381.71 331.527 1377.9 334.356Z" stroke="#71777D" stroke-opacity="0.2" stroke-width="2"/>
<g filter="url(#filter0_f_2001_2)">
<circle cx="701.5" cy="238.5" r="176.5" fill="#92989F" fill-opacity="0.6"/>
</g>
<g filter="url(#filter1_f_2001_2)">
<circle cx="1315.5" cy="103.5" r="176.5" fill="#92989F" fill-opacity="0.6"/>
</g>
<g filter="url(#filter2_f_2001_2)">
<circle cx="129.5" cy="419.5" r="176.5" fill="#92989F" fill-opacity="0.6"/>
</g>
<g filter="url(#filter3_f_2001_2)">
<circle cx="-46.5" cy="-9.5" r="176.5" fill="#92989F" fill-opacity="0.6"/>
</g>
<g filter="url(#filter4_f_2001_2)">
<circle cx="1584" cy="-295" r="170" fill="#FFD05D"/>
</g>
</g>
<defs>
<filter id="filter0_f_2001_2" x="225" y="-238" width="953" height="953" filterUnits="userSpaceOnUse" color-interpolation-filters="sRGB">
<feFlood flood-opacity="0" result="BackgroundImageFix"/>
<feBlend mode="normal" in="SourceGraphic" in2="BackgroundImageFix" result="shape"/>
<feGaussianBlur stdDeviation="150" result="effect1_foregroundBlur_2001_2"/>
</filter>
<filter id="filter1_f_2001_2" x="839" y="-373" width="953" height="953" filterUnits="userSpaceOnUse" color-interpolation-filters="sRGB">
<feFlood flood-opacity="0" result="BackgroundImageFix"/>
<feBlend mode="normal" in="SourceGraphic" in2="BackgroundImageFix" result="shape"/>
<feGaussianBlur stdDeviation="150" result="effect1_foregroundBlur_2001_2"/>
</filter>
<filter id="filter2_f_2001_2" x="-347" y="-57" width="953" height="953" filterUnits="userSpaceOnUse" color-interpolation-filters="sRGB">
<feFlood flood-opacity="0" result="BackgroundImageFix"/>
<feBlend mode="normal" in="SourceGraphic" in2="BackgroundImageFix" result="shape"/>
<feGaussianBlur stdDeviation="150" result="effect1_foregroundBlur_2001_2"/>
</filter>
<filter id="filter3_f_2001_2" x="-523" y="-486" width="953" height="953" filterUnits="userSpaceOnUse" color-interpolation-filters="sRGB">
<feFlood flood-opacity="0" result="BackgroundImageFix"/>
<feBlend mode="normal" in="SourceGraphic" in2="BackgroundImageFix" result="shape"/>
<feGaussianBlur stdDeviation="150" result="effect1_foregroundBlur_2001_2"/>
</filter>
<filter id="filter4_f_2001_2" x="1114" y="-765" width="940" height="940" filterUnits="userSpaceOnUse" color-interpolation-filters="sRGB">
<feFlood flood-opacity="0" result="BackgroundImageFix"/>
<feBlend mode="normal" in="SourceGraphic" in2="BackgroundImageFix" result="shape"/>
<feGaussianBlur stdDeviation="150" result="effect1_foregroundBlur_2001_2"/>
</filter>
<clipPath id="clip0_2001_2">
<rect width="1403" height="476" fill="white"/>
</clipPath>
</defs>
</svg>
